<?xml version="1.0" encoding="UTF-8" standalone="no"?>
<!DOCTYPE svg PUBLIC "-//W3C//DTD SVG 1.1//EN"
 "http://www.w3.org/Graphics/SVG/1.1/DTD/svg11.dtd">
<!-- Generated by graphviz version 2.48.0 (20210718.0759)
 -->
<!-- Pages: 1 -->
<svg width="643pt" height="2293pt"
 viewBox="0.00 0.00 643.46 2292.80" xmlns="http://www.w3.org/2000/svg" xmlns:xlink="http://www.w3.org/1999/xlink">
<g id="graph0" class="graph" transform="scale(1 1) rotate(0) translate(4 2288.8)">
<polygon fill="white" stroke="transparent" points="-4,4 -4,-2288.8 639.46,-2288.8 639.46,4 -4,4"/>
<text text-anchor="middle" x="317.73" y="-2268.2" font-family="Arial" font-size="14.00">Rick &amp; Morty&#39;s Thanksploitation Decision Tree</text>
<!-- reality -->
<g id="node1" class="node">
<title>reality</title>
<path fill="#272727" stroke="transparent" d="M369.73,-2259.9C369.73,-2259.9 323.18,-2259.9 323.18,-2259.9 317.18,-2259.9 311.18,-2253.9 311.18,-2247.9 311.18,-2247.9 311.18,-2227.3 311.18,-2227.3 311.18,-2221.3 317.18,-2215.3 323.18,-2215.3 323.18,-2215.3 369.73,-2215.3 369.73,-2215.3 375.73,-2215.3 381.73,-2221.3 381.73,-2227.3 381.73,-2227.3 381.73,-2247.9 381.73,-2247.9 381.73,-2253.9 375.73,-2259.9 369.73,-2259.9"/>
<text text-anchor="middle" x="346.46" y="-2233.4" font-family="Arial" font-size="14.00" fill="#ffffff">Reality</text>
</g>
<!-- brainwash_wrangler -->
<g id="node2" class="node">
<title>brainwash_wrangler</title>
<path fill="#ffa6d5" stroke="transparent" d="M248.13,-2186.3C248.13,-2186.3 148.78,-2186.3 148.78,-2186.3 142.78,-2186.3 136.78,-2180.3 136.78,-2174.3 136.78,-2174.3 136.78,-2102.9 136.78,-2102.9 136.78,-2096.9 142.78,-2090.9 148.78,-2090.9 148.78,-2090.9 248.13,-2090.9 248.13,-2090.9 254.13,-2090.9 260.13,-2096.9 260.13,-2102.9 260.13,-2102.9 260.13,-2174.3 260.13,-2174.3 260.13,-2180.3 254.13,-2186.3 248.13,-2186.3"/>
<text text-anchor="middle" x="198.46" y="-2159.6" font-family="Arial" font-size="14.00">Brainwash</text>
<text text-anchor="middle" x="198.46" y="-2142.8" font-family="Arial" font-size="14.00">presidential</text>
<text text-anchor="middle" x="198.46" y="-2126" font-family="Arial" font-size="14.00">turkey wrangler</text>
<text text-anchor="middle" x="198.46" y="-2109.2" font-family="Arial" font-size="14.00">pre&#45;ceremony</text>
</g>
<!-- reality&#45;&gt;brainwash_wrangler -->
<g id="edge2" class="edge">
<title>reality&#45;&gt;brainwash_wrangler</title>
<path fill="none" stroke="#2b303a" d="M312.5,-2215.21C300.47,-2207.57 286.7,-2198.76 269.31,-2187.39"/>
<polygon fill="#2b303a" stroke="#2b303a" points="270.75,-2184.15 260.47,-2181.59 266.91,-2190 270.75,-2184.15"/>
<text text-anchor="middle" x="262.71" y="-2202.09" font-family="Arial" font-size="12.00" fill="#010065">#yolosec</text>
</g>
<!-- armored_transport -->
<g id="node18" class="node">
<title>armored_transport</title>
<path fill="#b9d6f2" stroke="transparent" d="M406.35,-2178C406.35,-2178 286.56,-2178 286.56,-2178 280.56,-2178 274.56,-2172 274.56,-2166 274.56,-2166 274.56,-2111.2 274.56,-2111.2 274.56,-2105.2 280.56,-2099.2 286.56,-2099.2 286.56,-2099.2 406.35,-2099.2 406.35,-2099.2 412.35,-2099.2 418.35,-2105.2 418.35,-2111.2 418.35,-2111.2 418.35,-2166 418.35,-2166 418.35,-2172 412.35,-2178 406.35,-2178"/>
<text text-anchor="middle" x="346.46" y="-2151.2" font-family="Arial" font-size="14.00">Transport the</text>
<text text-anchor="middle" x="346.46" y="-2134.4" font-family="Arial" font-size="14.00">turkeys in armored</text>
<text text-anchor="middle" x="346.46" y="-2117.6" font-family="Arial" font-size="14.00">military vehicles</text>
</g>
<!-- reality&#45;&gt;armored_transport -->
<g id="edge27" class="edge">
<title>reality&#45;&gt;armored_transport</title>
<path fill="none" stroke="#2b303a" d="M346.46,-2215.07C346.46,-2207.04 346.46,-2197.56 346.46,-2188.08"/>
<polygon fill="#2b303a" stroke="#2b303a" points="349.96,-2187.86 346.46,-2177.86 342.96,-2187.86 349.96,-2187.86"/>
</g>
<!-- monitor_home -->
<g id="node24" class="node">
<title>monitor_home</title>
<path fill="#b9d6f2" stroke="transparent" d="M574.8,-2178C574.8,-2178 444.11,-2178 444.11,-2178 438.11,-2178 432.11,-2172 432.11,-2166 432.11,-2166 432.11,-2111.2 432.11,-2111.2 432.11,-2105.2 438.11,-2099.2 444.11,-2099.2 444.11,-2099.2 574.8,-2099.2 574.8,-2099.2 580.8,-2099.2 586.8,-2105.2 586.8,-2111.2 586.8,-2111.2 586.8,-2166 586.8,-2166 586.8,-2172 580.8,-2178 574.8,-2178"/>
<text text-anchor="middle" x="509.46" y="-2151.2" font-family="Arial" font-size="14.00">Monitor Rick&#39;s</text>
<text text-anchor="middle" x="509.46" y="-2134.4" font-family="Arial" font-size="14.00">house the day of the</text>
<text text-anchor="middle" x="509.46" y="-2117.6" font-family="Arial" font-size="14.00">ceremony</text>
</g>
<!-- reality&#45;&gt;monitor_home -->
<g id="edge33" class="edge">
<title>reality&#45;&gt;monitor_home</title>
<path fill="none" stroke="#2b303a" d="M381.82,-2215.55C397.9,-2205.99 417.55,-2194.29 436.56,-2182.98"/>
<polygon fill="#2b303a" stroke="#2b303a" points="438.44,-2185.93 445.24,-2177.81 434.86,-2179.92 438.44,-2185.93"/>
</g>
<!-- become_turkey -->
<g id="node3" class="node">
<title>become_turkey</title>
<path fill="#ffa6d5" stroke="transparent" d="M124.87,-2053.5C124.87,-2053.5 12.04,-2053.5 12.04,-2053.5 6.04,-2053.5 0.04,-2047.5 0.04,-2041.5 0.04,-2041.5 0.04,-2020.9 0.04,-2020.9 0.04,-2014.9 6.04,-2008.9 12.04,-2008.9 12.04,-2008.9 124.87,-2008.9 124.87,-2008.9 130.87,-2008.9 136.87,-2014.9 136.87,-2020.9 136.87,-2020.9 136.87,-2041.5 136.87,-2041.5 136.87,-2047.5 130.87,-2053.5 124.87,-2053.5"/>
<text text-anchor="middle" x="68.46" y="-2027" font-family="Arial" font-size="14.00">Turn into a turkey</text>
</g>
<!-- brainwash_wrangler&#45;&gt;become_turkey -->
<g id="edge3" class="edge">
<title>brainwash_wrangler&#45;&gt;become_turkey</title>
<path fill="none" stroke="#2b303a" d="M140.68,-2090.76C127.68,-2080.21 114.28,-2069.35 102.61,-2059.9"/>
<polygon fill="#2b303a" stroke="#2b303a" points="104.81,-2057.17 94.84,-2053.59 100.4,-2062.61 104.81,-2057.17"/>
</g>
<!-- euthanize_wrangler -->
<g id="node17" class="node">
<title>euthanize_wrangler</title>
<path fill="#b9d6f2" stroke="transparent" d="M262.13,-2061.8C262.13,-2061.8 162.78,-2061.8 162.78,-2061.8 156.78,-2061.8 150.78,-2055.8 150.78,-2049.8 150.78,-2049.8 150.78,-2012.6 150.78,-2012.6 150.78,-2006.6 156.78,-2000.6 162.78,-2000.6 162.78,-2000.6 262.13,-2000.6 262.13,-2000.6 268.13,-2000.6 274.13,-2006.6 274.13,-2012.6 274.13,-2012.6 274.13,-2049.8 274.13,-2049.8 274.13,-2055.8 268.13,-2061.8 262.13,-2061.8"/>
<text text-anchor="middle" x="212.46" y="-2035.4" font-family="Arial" font-size="14.00">Euthanize the</text>
<text text-anchor="middle" x="212.46" y="-2018.6" font-family="Arial" font-size="14.00">turkey wrangler</text>
</g>
<!-- brainwash_wrangler&#45;&gt;euthanize_wrangler -->
<g id="edge26" class="edge">
<title>brainwash_wrangler&#45;&gt;euthanize_wrangler</title>
<path fill="none" stroke="#2b303a" d="M204.68,-2090.76C205.51,-2084.49 206.36,-2078.11 207.17,-2071.97"/>
<polygon fill="#2b303a" stroke="#2b303a" points="210.66,-2072.32 208.5,-2061.95 203.72,-2071.4 210.66,-2072.32"/>
</g>
<!-- brainwash_wrangler&#45;&gt;armored_transport -->
<!-- infiltrate_turkeys -->
<g id="node4" class="node">
<title>infiltrate_turkeys</title>
<path fill="#ffa6d5" stroke="transparent" d="M245.87,-558.5C245.87,-558.5 147.04,-558.5 147.04,-558.5 141.04,-558.5 135.04,-552.5 135.04,-546.5 135.04,-546.5 135.04,-475.1 135.04,-475.1 135.04,-469.1 141.04,-463.1 147.04,-463.1 147.04,-463.1 245.87,-463.1 245.87,-463.1 251.87,-463.1 257.87,-469.1 257.87,-475.1 257.87,-475.1 257.87,-546.5 257.87,-546.5 257.87,-552.5 251.87,-558.5 245.87,-558.5"/>
<text text-anchor="middle" x="196.46" y="-531.8" font-family="Arial" font-size="14.00">Infiltrate</text>
<text text-anchor="middle" x="196.46" y="-515" font-family="Arial" font-size="14.00">potential turkey</text>
<text text-anchor="middle" x="196.46" y="-498.2" font-family="Arial" font-size="14.00">pardonee</text>
<text text-anchor="middle" x="196.46" y="-481.4" font-family="Arial" font-size="14.00">population</text>
</g>
<!-- become_turkey&#45;&gt;infiltrate_turkeys -->
<g id="edge4" class="edge">
<title>become_turkey&#45;&gt;infiltrate_turkeys</title>
<path fill="none" stroke="#2b303a" d="M68.46,-2008.75C68.46,-1970.38 68.46,-1887.41 68.46,-1817.4 68.46,-1817.4 68.46,-1817.4 68.46,-707.8 68.46,-650.19 84.09,-635.06 116.46,-587.4 121.5,-579.97 127.39,-572.72 133.64,-565.83"/>
<polygon fill="#2b303a" stroke="#2b303a" points="136.23,-568.19 140.55,-558.51 131.14,-563.39 136.23,-568.19"/>
</g>
<!-- become_turkey&#45;&gt;euthanize_wrangler -->
<!-- chosen_turkey -->
<g id="node5" class="node">
<title>chosen_turkey</title>
<path fill="#ffa6d5" stroke="transparent" d="M254.5,-219.4C254.5,-219.4 138.41,-219.4 138.41,-219.4 132.41,-219.4 126.41,-213.4 126.41,-207.4 126.41,-207.4 126.41,-119.4 126.41,-119.4 126.41,-113.4 132.41,-107.4 138.41,-107.4 138.41,-107.4 254.5,-107.4 254.5,-107.4 260.5,-107.4 266.5,-113.4 266.5,-119.4 266.5,-119.4 266.5,-207.4 266.5,-207.4 266.5,-213.4 260.5,-219.4 254.5,-219.4"/>
<text text-anchor="middle" x="196.46" y="-192.8" font-family="Arial" font-size="14.00">Be selected at the</text>
<text text-anchor="middle" x="196.46" y="-176" font-family="Arial" font-size="14.00">National</text>
<text text-anchor="middle" x="196.46" y="-159.2" font-family="Arial" font-size="14.00">Thanksgiving</text>
<text text-anchor="middle" x="196.46" y="-142.4" font-family="Arial" font-size="14.00">Turkey</text>
<text text-anchor="middle" x="196.46" y="-125.6" font-family="Arial" font-size="14.00">Presentation</text>
</g>
<!-- infiltrate_turkeys&#45;&gt;chosen_turkey -->
<g id="edge6" class="edge">
<title>infiltrate_turkeys&#45;&gt;chosen_turkey</title>
<path fill="none" stroke="#2b303a" d="M196.46,-462.86C196.46,-402.59 196.46,-297.7 196.46,-229.69"/>
<polygon fill="#2b303a" stroke="#2b303a" points="199.96,-229.51 196.46,-219.51 192.96,-229.51 199.96,-229.51"/>
</g>
<!-- scan_transport -->
<g id="node28" class="node">
<title>scan_transport</title>
<path fill="#b9d6f2" stroke="transparent" d="M415.46,-550.2C415.46,-550.2 313.45,-550.2 313.45,-550.2 307.45,-550.2 301.45,-544.2 301.45,-538.2 301.45,-538.2 301.45,-483.4 301.45,-483.4 301.45,-477.4 307.45,-471.4 313.45,-471.4 313.45,-471.4 415.46,-471.4 415.46,-471.4 421.46,-471.4 427.46,-477.4 427.46,-483.4 427.46,-483.4 427.46,-538.2 427.46,-538.2 427.46,-544.2 421.46,-550.2 415.46,-550.2"/>
<text text-anchor="middle" x="364.46" y="-523.4" font-family="Arial" font-size="14.00">Scan transport</text>
<text text-anchor="middle" x="364.46" y="-506.6" font-family="Arial" font-size="14.00">truck for ID chip</text>
<text text-anchor="middle" x="364.46" y="-489.8" font-family="Arial" font-size="14.00">anomalies</text>
</g>
<!-- infiltrate_turkeys&#45;&gt;scan_transport -->
<!-- president_turkey -->
<g id="node29" class="node">
<title>president_turkey</title>
<path fill="#b9d6f2" stroke="transparent" d="M379.7,-434.4C379.7,-434.4 257.21,-434.4 257.21,-434.4 251.21,-434.4 245.21,-428.4 245.21,-422.4 245.21,-422.4 245.21,-367.6 245.21,-367.6 245.21,-361.6 251.21,-355.6 257.21,-355.6 257.21,-355.6 379.7,-355.6 379.7,-355.6 385.7,-355.6 391.7,-361.6 391.7,-367.6 391.7,-367.6 391.7,-422.4 391.7,-422.4 391.7,-428.4 385.7,-434.4 379.7,-434.4"/>
<text text-anchor="middle" x="318.46" y="-407.6" font-family="Arial" font-size="14.00">Turn President into</text>
<text text-anchor="middle" x="318.46" y="-390.8" font-family="Arial" font-size="14.00">turkey to hunt for</text>
<text text-anchor="middle" x="318.46" y="-374" font-family="Arial" font-size="14.00">Rick in the pen</text>
</g>
<!-- infiltrate_turkeys&#45;&gt;president_turkey -->
<g id="edge40" class="edge">
<title>infiltrate_turkeys&#45;&gt;president_turkey</title>
<path fill="none" stroke="#2b303a" d="M246.43,-463.18C254.13,-456 262.07,-448.6 269.74,-441.44"/>
<polygon fill="#2b303a" stroke="#2b303a" points="272.38,-443.77 277.3,-434.39 267.6,-438.65 272.38,-443.77"/>
</g>
<!-- attack_rick -->
<g id="node30" class="node">
<title>attack_rick</title>
<path fill="#b9d6f2" stroke="transparent" d="M404.6,-194C404.6,-194 292.31,-194 292.31,-194 286.31,-194 280.31,-188 280.31,-182 280.31,-182 280.31,-144.8 280.31,-144.8 280.31,-138.8 286.31,-132.8 292.31,-132.8 292.31,-132.8 404.6,-132.8 404.6,-132.8 410.6,-132.8 416.6,-138.8 416.6,-144.8 416.6,-144.8 416.6,-182 416.6,-182 416.6,-188 410.6,-194 404.6,-194"/>
<text text-anchor="middle" x="348.46" y="-167.6" font-family="Arial" font-size="14.00">President detects</text>
<text text-anchor="middle" x="348.46" y="-150.8" font-family="Arial" font-size="14.00">and attacks Rick</text>
</g>
<!-- chosen_turkey&#45;&gt;attack_rick -->
<!-- receive_pardon -->
<g id="node31" class="node">
<title>receive_pardon</title>
<path fill="#5f00c2" stroke="transparent" d="M247.2,-78.6C247.2,-78.6 145.72,-78.6 145.72,-78.6 139.72,-78.6 133.72,-72.6 133.72,-66.6 133.72,-66.6 133.72,-11.8 133.72,-11.8 133.72,-5.8 139.72,0.2 145.72,0.2 145.72,0.2 247.2,0.2 247.2,0.2 253.2,0.2 259.2,-5.8 259.2,-11.8 259.2,-11.8 259.2,-66.6 259.2,-66.6 259.2,-72.6 253.2,-78.6 247.2,-78.6"/>
<text text-anchor="middle" x="196.46" y="-51.8" font-family="Arial" font-size="14.00" fill="#ffffff">Receive federal</text>
<text text-anchor="middle" x="196.46" y="-35" font-family="Arial" font-size="14.00" fill="#ffffff">pardon</text>
<text text-anchor="middle" x="196.46" y="-18.2" font-family="Arial" font-size="14.00" fill="#ffffff">(Rick wins)</text>
</g>
<!-- chosen_turkey&#45;&gt;receive_pardon -->
<g id="edge1" class="edge">
<title>chosen_turkey&#45;&gt;receive_pardon</title>
<path fill="none" stroke="#2b303a" d="M196.46,-107.38C196.46,-101.13 196.46,-94.79 196.46,-88.64"/>
<polygon fill="#2b303a" stroke="#2b303a" points="199.96,-88.49 196.46,-78.49 192.96,-88.49 199.96,-88.49"/>
</g>
<!-- ghost_corp -->
<g id="node6" class="node">
<title>ghost_corp</title>
<path fill="#ffa6d5" stroke="transparent" d="M399.1,-1971.5C399.1,-1971.5 293.81,-1971.5 293.81,-1971.5 287.81,-1971.5 281.81,-1965.5 281.81,-1959.5 281.81,-1959.5 281.81,-1888.1 281.81,-1888.1 281.81,-1882.1 287.81,-1876.1 293.81,-1876.1 293.81,-1876.1 399.1,-1876.1 399.1,-1876.1 405.1,-1876.1 411.1,-1882.1 411.1,-1888.1 411.1,-1888.1 411.1,-1959.5 411.1,-1959.5 411.1,-1965.5 405.1,-1971.5 399.1,-1971.5"/>
<text text-anchor="middle" x="346.46" y="-1944.8" font-family="Arial" font-size="14.00">Set up ghost</text>
<text text-anchor="middle" x="346.46" y="-1928" font-family="Arial" font-size="14.00">corporations to</text>
<text text-anchor="middle" x="346.46" y="-1911.2" font-family="Arial" font-size="14.00">manufacture the</text>
<text text-anchor="middle" x="346.46" y="-1894.4" font-family="Arial" font-size="14.00">vehicles</text>
</g>
<!-- access_computers -->
<g id="node8" class="node">
<title>access_computers</title>
<path fill="#ffa6d5" stroke="transparent" d="M398.19,-1666.2C398.19,-1666.2 282.72,-1666.2 282.72,-1666.2 276.72,-1666.2 270.72,-1660.2 270.72,-1654.2 270.72,-1654.2 270.72,-1599.4 270.72,-1599.4 270.72,-1593.4 276.72,-1587.4 282.72,-1587.4 282.72,-1587.4 398.19,-1587.4 398.19,-1587.4 404.19,-1587.4 410.19,-1593.4 410.19,-1599.4 410.19,-1599.4 410.19,-1654.2 410.19,-1654.2 410.19,-1660.2 404.19,-1666.2 398.19,-1666.2"/>
<text text-anchor="middle" x="340.46" y="-1639.4" font-family="Arial" font-size="14.00">Gain access to</text>
<text text-anchor="middle" x="340.46" y="-1622.6" font-family="Arial" font-size="14.00">vehicle corp&#39;s</text>
<text text-anchor="middle" x="340.46" y="-1605.8" font-family="Arial" font-size="14.00">central computers</text>
</g>
<!-- ghost_corp&#45;&gt;access_computers -->
<g id="edge11" class="edge">
<title>ghost_corp&#45;&gt;access_computers</title>
<path fill="none" stroke="#2b303a" d="M325.17,-1875.95C321.69,-1866.59 318.55,-1856.72 316.46,-1847.2 301.92,-1781.1 297.76,-1761.28 311.46,-1695 312.8,-1688.48 314.81,-1681.81 317.16,-1675.33"/>
<polygon fill="#2b303a" stroke="#2b303a" points="320.42,-1676.6 320.8,-1666.01 313.9,-1674.05 320.42,-1676.6"/>
</g>
<!-- audit_vehicles -->
<g id="node19" class="node">
<title>audit_vehicles</title>
<path fill="#b9d6f2" stroke="transparent" d="M441.65,-1847C441.65,-1847 335.26,-1847 335.26,-1847 329.26,-1847 323.26,-1841 323.26,-1835 323.26,-1835 323.26,-1797.8 323.26,-1797.8 323.26,-1791.8 329.26,-1785.8 335.26,-1785.8 335.26,-1785.8 441.65,-1785.8 441.65,-1785.8 447.65,-1785.8 453.65,-1791.8 453.65,-1797.8 453.65,-1797.8 453.65,-1835 453.65,-1835 453.65,-1841 447.65,-1847 441.65,-1847"/>
<text text-anchor="middle" x="388.46" y="-1820.6" font-family="Arial" font-size="14.00">Audit the vehicle</text>
<text text-anchor="middle" x="388.46" y="-1803.8" font-family="Arial" font-size="14.00">manufacturers</text>
</g>
<!-- ghost_corp&#45;&gt;audit_vehicles -->
<g id="edge28" class="edge">
<title>ghost_corp&#45;&gt;audit_vehicles</title>
<path fill="none" stroke="#2b303a" d="M365.12,-1875.96C367.68,-1869.53 370.29,-1862.99 372.79,-1856.72"/>
<polygon fill="#2b303a" stroke="#2b303a" points="376.15,-1857.74 376.6,-1847.15 369.65,-1855.15 376.15,-1857.74"/>
</g>
<!-- pass_audit -->
<g id="node7" class="node">
<title>pass_audit</title>
<path fill="#ffa6d5" stroke="transparent" d="M456.33,-1756.4C456.33,-1756.4 330.58,-1756.4 330.58,-1756.4 324.58,-1756.4 318.58,-1750.4 318.58,-1744.4 318.58,-1744.4 318.58,-1707.2 318.58,-1707.2 318.58,-1701.2 324.58,-1695.2 330.58,-1695.2 330.58,-1695.2 456.33,-1695.2 456.33,-1695.2 462.33,-1695.2 468.33,-1701.2 468.33,-1707.2 468.33,-1707.2 468.33,-1744.4 468.33,-1744.4 468.33,-1750.4 462.33,-1756.4 456.33,-1756.4"/>
<text text-anchor="middle" x="393.46" y="-1730" font-family="Arial" font-size="14.00">Pass audit through</text>
<text text-anchor="middle" x="393.46" y="-1713.2" font-family="Arial" font-size="14.00">unexplained means</text>
</g>
<!-- pass_audit&#45;&gt;access_computers -->
<g id="edge12" class="edge">
<title>pass_audit&#45;&gt;access_computers</title>
<path fill="none" stroke="#2b303a" d="M377.27,-1695.17C373.83,-1688.89 370.13,-1682.11 366.44,-1675.35"/>
<polygon fill="#2b303a" stroke="#2b303a" points="369.3,-1673.3 361.44,-1666.2 363.16,-1676.65 369.3,-1673.3"/>
</g>
<!-- track_transport -->
<g id="node9" class="node">
<title>track_transport</title>
<path fill="#ffa6d5" stroke="transparent" d="M429.69,-1425.8C429.69,-1425.8 307.22,-1425.8 307.22,-1425.8 301.22,-1425.8 295.22,-1419.8 295.22,-1413.8 295.22,-1413.8 295.22,-1376.6 295.22,-1376.6 295.22,-1370.6 301.22,-1364.6 307.22,-1364.6 307.22,-1364.6 429.69,-1364.6 429.69,-1364.6 435.69,-1364.6 441.69,-1370.6 441.69,-1376.6 441.69,-1376.6 441.69,-1413.8 441.69,-1413.8 441.69,-1419.8 435.69,-1425.8 429.69,-1425.8"/>
<text text-anchor="middle" x="368.46" y="-1399.4" font-family="Arial" font-size="14.00">Track the real</text>
<text text-anchor="middle" x="368.46" y="-1382.6" font-family="Arial" font-size="14.00">armored transports</text>
</g>
<!-- access_computers&#45;&gt;track_transport -->
<g id="edge13" class="edge">
<title>access_computers&#45;&gt;track_transport</title>
<path fill="none" stroke="#2b303a" d="M316.4,-1587.25C311.88,-1578.18 307.83,-1568.31 305.46,-1558.6 295.39,-1517.5 289.9,-1502.75 305.46,-1463.4 309.73,-1452.59 316.66,-1442.5 324.39,-1433.59"/>
<polygon fill="#2b303a" stroke="#2b303a" points="327.12,-1435.8 331.34,-1426.08 321.98,-1431.04 327.12,-1435.8"/>
</g>
<!-- decoy_vehicles -->
<g id="node20" class="node">
<title>decoy_vehicles</title>
<path fill="#b9d6f2" stroke="transparent" d="M416.37,-1558.7C416.37,-1558.7 324.54,-1558.7 324.54,-1558.7 318.54,-1558.7 312.54,-1552.7 312.54,-1546.7 312.54,-1546.7 312.54,-1475.3 312.54,-1475.3 312.54,-1469.3 318.54,-1463.3 324.54,-1463.3 324.54,-1463.3 416.37,-1463.3 416.37,-1463.3 422.37,-1463.3 428.37,-1469.3 428.37,-1475.3 428.37,-1475.3 428.37,-1546.7 428.37,-1546.7 428.37,-1552.7 422.37,-1558.7 416.37,-1558.7"/>
<text text-anchor="middle" x="370.46" y="-1532" font-family="Arial" font-size="14.00">Deploy decoy</text>
<text text-anchor="middle" x="370.46" y="-1515.2" font-family="Arial" font-size="14.00">vehicles to</text>
<text text-anchor="middle" x="370.46" y="-1498.4" font-family="Arial" font-size="14.00">obfuscate real</text>
<text text-anchor="middle" x="370.46" y="-1481.6" font-family="Arial" font-size="14.00">transport</text>
</g>
<!-- access_computers&#45;&gt;decoy_vehicles -->
<g id="edge29" class="edge">
<title>access_computers&#45;&gt;decoy_vehicles</title>
<path fill="none" stroke="#2b303a" d="M350.53,-1587.59C352.14,-1581.49 353.83,-1575.06 355.52,-1568.64"/>
<polygon fill="#2b303a" stroke="#2b303a" points="359,-1569.17 358.17,-1558.6 352.24,-1567.38 359,-1569.17"/>
</g>
<!-- sneak_onboard -->
<g id="node11" class="node">
<title>sneak_onboard</title>
<path fill="#ffa6d5" stroke="transparent" d="M257.73,-648.8C257.73,-648.8 135.18,-648.8 135.18,-648.8 129.18,-648.8 123.18,-642.8 123.18,-636.8 123.18,-636.8 123.18,-599.6 123.18,-599.6 123.18,-593.6 129.18,-587.6 135.18,-587.6 135.18,-587.6 257.73,-587.6 257.73,-587.6 263.73,-587.6 269.73,-593.6 269.73,-599.6 269.73,-599.6 269.73,-636.8 269.73,-636.8 269.73,-642.8 263.73,-648.8 257.73,-648.8"/>
<text text-anchor="middle" x="196.46" y="-622.4" font-family="Arial" font-size="14.00">Sneak onboard the</text>
<text text-anchor="middle" x="196.46" y="-605.6" font-family="Arial" font-size="14.00">armored transport</text>
</g>
<!-- track_transport&#45;&gt;sneak_onboard -->
<g id="edge18" class="edge">
<title>track_transport&#45;&gt;sneak_onboard</title>
<path fill="none" stroke="#2b303a" d="M300.32,-1364.51C229.37,-1328.44 128.46,-1260.32 128.46,-1164.6 128.46,-1164.6 128.46,-1164.6 128.46,-806.8 128.46,-748.02 135.5,-732.11 158.46,-678 161.36,-671.15 165.05,-664.22 168.98,-657.63"/>
<polygon fill="#2b303a" stroke="#2b303a" points="172.1,-659.24 174.44,-648.91 166.17,-655.53 172.1,-659.24"/>
</g>
<!-- armed_marines -->
<g id="node21" class="node">
<title>armed_marines</title>
<path fill="#b9d6f2" stroke="transparent" d="M428.08,-1327.2C428.08,-1327.2 308.83,-1327.2 308.83,-1327.2 302.83,-1327.2 296.83,-1321.2 296.83,-1315.2 296.83,-1315.2 296.83,-1260.4 296.83,-1260.4 296.83,-1254.4 302.83,-1248.4 308.83,-1248.4 308.83,-1248.4 428.08,-1248.4 428.08,-1248.4 434.08,-1248.4 440.08,-1254.4 440.08,-1260.4 440.08,-1260.4 440.08,-1315.2 440.08,-1315.2 440.08,-1321.2 434.08,-1327.2 428.08,-1327.2"/>
<text text-anchor="middle" x="368.46" y="-1300.4" font-family="Arial" font-size="14.00">Put fully armed</text>
<text text-anchor="middle" x="368.46" y="-1283.6" font-family="Arial" font-size="14.00">marines in the real</text>
<text text-anchor="middle" x="368.46" y="-1266.8" font-family="Arial" font-size="14.00">transport vehicle</text>
</g>
<!-- track_transport&#45;&gt;armed_marines -->
<g id="edge30" class="edge">
<title>track_transport&#45;&gt;armed_marines</title>
<path fill="none" stroke="#2b303a" d="M368.46,-1364.56C368.46,-1356.15 368.46,-1346.77 368.46,-1337.56"/>
<polygon fill="#2b303a" stroke="#2b303a" points="371.96,-1337.28 368.46,-1327.28 364.96,-1337.28 371.96,-1337.28"/>
</g>
<!-- blaine_box -->
<g id="node27" class="node">
<title>blaine_box</title>
<path fill="#b9d6f2" stroke="transparent" d="M594.89,-1434.6C594.89,-1434.6 468.02,-1434.6 468.02,-1434.6 462.02,-1434.6 456.02,-1428.6 456.02,-1422.6 456.02,-1422.6 456.02,-1367.8 456.02,-1367.8 456.02,-1361.8 462.02,-1355.8 468.02,-1355.8 468.02,-1355.8 594.89,-1355.8 594.89,-1355.8 600.89,-1355.8 606.89,-1361.8 606.89,-1367.8 606.89,-1367.8 606.89,-1422.6 606.89,-1422.6 606.89,-1428.6 600.89,-1434.6 594.89,-1434.6"/>
<text text-anchor="middle" x="531.46" y="-1407.8" font-family="Arial" font-size="14.00">Bring in David</text>
<text text-anchor="middle" x="531.46" y="-1391" font-family="Arial" font-size="14.00">Blaine box to detect</text>
<text text-anchor="middle" x="531.46" y="-1374.2" font-family="Arial" font-size="14.00">decoy flesh robots</text>
</g>
<!-- track_transport&#45;&gt;blaine_box -->
<!-- stealth_mode -->
<g id="node10" class="node">
<title>stealth_mode</title>
<path fill="#ffa6d5" stroke="transparent" d="M418.89,-1070.4C418.89,-1070.4 292.02,-1070.4 292.02,-1070.4 286.02,-1070.4 280.02,-1064.4 280.02,-1058.4 280.02,-1058.4 280.02,-1003.6 280.02,-1003.6 280.02,-997.6 286.02,-991.6 292.02,-991.6 292.02,-991.6 418.89,-991.6 418.89,-991.6 424.89,-991.6 430.89,-997.6 430.89,-1003.6 430.89,-1003.6 430.89,-1058.4 430.89,-1058.4 430.89,-1064.4 424.89,-1070.4 418.89,-1070.4"/>
<text text-anchor="middle" x="355.46" y="-1043.6" font-family="Arial" font-size="14.00">Land flying ship in</text>
<text text-anchor="middle" x="355.46" y="-1026.8" font-family="Arial" font-size="14.00">stealth mode on top</text>
<text text-anchor="middle" x="355.46" y="-1010" font-family="Arial" font-size="14.00">of transport</text>
</g>
<!-- stealth_mode&#45;&gt;sneak_onboard -->
<g id="edge19" class="edge">
<title>stealth_mode&#45;&gt;sneak_onboard</title>
<path fill="none" stroke="#2b303a" d="M297.79,-991.51C254.48,-958.84 198.49,-907.68 173.46,-847 144.81,-777.57 159.53,-751.81 173.46,-678 174.66,-671.64 176.53,-665.08 178.69,-658.76"/>
<polygon fill="#2b303a" stroke="#2b303a" points="182.09,-659.67 182.29,-649.08 175.53,-657.23 182.09,-659.67"/>
</g>
<!-- turkey_marines -->
<g id="node22" class="node">
<title>turkey_marines</title>
<path fill="#b9d6f2" stroke="transparent" d="M574.03,-1078.7C574.03,-1078.7 456.88,-1078.7 456.88,-1078.7 450.88,-1078.7 444.88,-1072.7 444.88,-1066.7 444.88,-1066.7 444.88,-995.3 444.88,-995.3 444.88,-989.3 450.88,-983.3 456.88,-983.3 456.88,-983.3 574.03,-983.3 574.03,-983.3 580.03,-983.3 586.03,-989.3 586.03,-995.3 586.03,-995.3 586.03,-1066.7 586.03,-1066.7 586.03,-1072.7 580.03,-1078.7 574.03,-1078.7"/>
<text text-anchor="middle" x="515.46" y="-1052" font-family="Arial" font-size="14.00">Turn marines into</text>
<text text-anchor="middle" x="515.46" y="-1035.2" font-family="Arial" font-size="14.00">turkeys to mitigate</text>
<text text-anchor="middle" x="515.46" y="-1018.4" font-family="Arial" font-size="14.00">turkey&#45;face</text>
<text text-anchor="middle" x="515.46" y="-1001.6" font-family="Arial" font-size="14.00">blindness</text>
</g>
<!-- stealth_mode&#45;&gt;turkey_marines -->
<!-- investigate_noise -->
<g id="node25" class="node">
<title>investigate_noise</title>
<path fill="#b9d6f2" stroke="transparent" d="M410.54,-954.6C410.54,-954.6 300.37,-954.6 300.37,-954.6 294.37,-954.6 288.37,-948.6 288.37,-942.6 288.37,-942.6 288.37,-887.8 288.37,-887.8 288.37,-881.8 294.37,-875.8 300.37,-875.8 300.37,-875.8 410.54,-875.8 410.54,-875.8 416.54,-875.8 422.54,-881.8 422.54,-887.8 422.54,-887.8 422.54,-942.6 422.54,-942.6 422.54,-948.6 416.54,-954.6 410.54,-954.6"/>
<text text-anchor="middle" x="355.46" y="-927.8" font-family="Arial" font-size="14.00">Marines</text>
<text text-anchor="middle" x="355.46" y="-911" font-family="Arial" font-size="14.00">investigate noise</text>
<text text-anchor="middle" x="355.46" y="-894.2" font-family="Arial" font-size="14.00">on roof of vehicle</text>
</g>
<!-- stealth_mode&#45;&gt;investigate_noise -->
<g id="edge34" class="edge">
<title>stealth_mode&#45;&gt;investigate_noise</title>
<path fill="none" stroke="#2b303a" d="M355.46,-991.79C355.46,-983.06 355.46,-973.68 355.46,-964.59"/>
<polygon fill="#2b303a" stroke="#2b303a" points="358.96,-964.5 355.46,-954.5 351.96,-964.5 358.96,-964.5"/>
</g>
<!-- sneak_onboard&#45;&gt;infiltrate_turkeys -->
<g id="edge5" class="edge">
<title>sneak_onboard&#45;&gt;infiltrate_turkeys</title>
<path fill="none" stroke="#2b303a" d="M196.46,-587.56C196.46,-581.65 196.46,-575.25 196.46,-568.77"/>
<polygon fill="#2b303a" stroke="#2b303a" points="199.96,-568.56 196.46,-558.56 192.96,-568.56 199.96,-568.56"/>
</g>
<!-- sneak_onboard&#45;&gt;scan_transport -->
<g id="edge39" class="edge">
<title>sneak_onboard&#45;&gt;scan_transport</title>
<path fill="none" stroke="#2b303a" d="M243.7,-587.56C259.49,-577.66 277.43,-566.4 294.56,-555.65"/>
<polygon fill="#2b303a" stroke="#2b303a" points="296.82,-558.36 303.44,-550.08 293.1,-552.43 296.82,-558.36"/>
</g>
<!-- face_blind -->
<g id="node12" class="node">
<title>face_blind</title>
<path fill="#ffa6d5" stroke="transparent" d="M491.72,-1219.6C491.72,-1219.6 389.19,-1219.6 389.19,-1219.6 383.19,-1219.6 377.19,-1213.6 377.19,-1207.6 377.19,-1207.6 377.19,-1119.6 377.19,-1119.6 377.19,-1113.6 383.19,-1107.6 389.19,-1107.6 389.19,-1107.6 491.72,-1107.6 491.72,-1107.6 497.72,-1107.6 503.72,-1113.6 503.72,-1119.6 503.72,-1119.6 503.72,-1207.6 503.72,-1207.6 503.72,-1213.6 497.72,-1219.6 491.72,-1219.6"/>
<text text-anchor="middle" x="440.46" y="-1193" font-family="Arial" font-size="14.00">Exploit marines&#39;</text>
<text text-anchor="middle" x="440.46" y="-1176.2" font-family="Arial" font-size="14.00">turkey&#45;face</text>
<text text-anchor="middle" x="440.46" y="-1159.4" font-family="Arial" font-size="14.00">blindness by</text>
<text text-anchor="middle" x="440.46" y="-1142.6" font-family="Arial" font-size="14.00">turning into a</text>
<text text-anchor="middle" x="440.46" y="-1125.8" font-family="Arial" font-size="14.00">turkey</text>
</g>
<!-- face_blind&#45;&gt;stealth_mode -->
<g id="edge16" class="edge">
<title>face_blind&#45;&gt;stealth_mode</title>
<path fill="none" stroke="#2b303a" d="M404.65,-1107.59C398.4,-1097.99 391.95,-1088.07 385.86,-1078.72"/>
<polygon fill="#2b303a" stroke="#2b303a" points="388.77,-1076.78 380.39,-1070.3 382.91,-1080.6 388.77,-1076.78"/>
</g>
<!-- face_blind&#45;&gt;turkey_marines -->
<g id="edge31" class="edge">
<title>face_blind&#45;&gt;turkey_marines</title>
<path fill="none" stroke="#2b303a" d="M472.05,-1107.59C475.84,-1100.98 479.72,-1094.22 483.53,-1087.6"/>
<polygon fill="#2b303a" stroke="#2b303a" points="486.7,-1089.09 488.65,-1078.68 480.63,-1085.61 486.7,-1089.09"/>
</g>
<!-- flesh_robots -->
<g id="node13" class="node">
<title>flesh_robots</title>
<path fill="#ffa6d5" stroke="transparent" d="M560.76,-1558.7C560.76,-1558.7 458.15,-1558.7 458.15,-1558.7 452.15,-1558.7 446.15,-1552.7 446.15,-1546.7 446.15,-1546.7 446.15,-1475.3 446.15,-1475.3 446.15,-1469.3 452.15,-1463.3 458.15,-1463.3 458.15,-1463.3 560.76,-1463.3 560.76,-1463.3 566.76,-1463.3 572.76,-1469.3 572.76,-1475.3 572.76,-1475.3 572.76,-1546.7 572.76,-1546.7 572.76,-1552.7 566.76,-1558.7 560.76,-1558.7"/>
<text text-anchor="middle" x="509.46" y="-1532" font-family="Arial" font-size="14.00">Create</text>
<text text-anchor="middle" x="509.46" y="-1515.2" font-family="Arial" font-size="14.00">flesh&#45;covered</text>
<text text-anchor="middle" x="509.46" y="-1498.4" font-family="Arial" font-size="14.00">robots of self as</text>
<text text-anchor="middle" x="509.46" y="-1481.6" font-family="Arial" font-size="14.00">decoys</text>
</g>
<!-- flesh_robots&#45;&gt;track_transport -->
<g id="edge14" class="edge">
<title>flesh_robots&#45;&gt;track_transport</title>
<path fill="none" stroke="#2b303a" d="M451.7,-1463.38C438.85,-1453.01 425.41,-1442.17 413.18,-1432.29"/>
<polygon fill="#2b303a" stroke="#2b303a" points="415.31,-1429.52 405.33,-1425.96 410.91,-1434.96 415.31,-1429.52"/>
</g>
<!-- flesh_robots&#45;&gt;blaine_box -->
<g id="edge36" class="edge">
<title>flesh_robots&#45;&gt;blaine_box</title>
<path fill="none" stroke="#2b303a" d="M518.47,-1463.38C519.65,-1457.25 520.87,-1450.95 522.06,-1444.79"/>
<polygon fill="#2b303a" stroke="#2b303a" points="525.57,-1445.07 524.03,-1434.59 518.7,-1443.74 525.57,-1445.07"/>
</g>
<!-- jam_radios -->
<g id="node14" class="node">
<title>jam_radios</title>
<path fill="#ffa6d5" stroke="transparent" d="M302.5,-838.4C302.5,-838.4 192.41,-838.4 192.41,-838.4 186.41,-838.4 180.41,-832.4 180.41,-826.4 180.41,-826.4 180.41,-789.2 180.41,-789.2 180.41,-783.2 186.41,-777.2 192.41,-777.2 192.41,-777.2 302.5,-777.2 302.5,-777.2 308.5,-777.2 314.5,-783.2 314.5,-789.2 314.5,-789.2 314.5,-826.4 314.5,-826.4 314.5,-832.4 308.5,-838.4 302.5,-838.4"/>
<text text-anchor="middle" x="247.46" y="-812" font-family="Arial" font-size="14.00">Jam the marines&#39;</text>
<text text-anchor="middle" x="247.46" y="-795.2" font-family="Arial" font-size="14.00">radios</text>
</g>
<!-- roof_combat -->
<g id="node15" class="node">
<title>roof_combat</title>
<path fill="#ffa6d5" stroke="transparent" d="M312.65,-739.4C312.65,-739.4 192.26,-739.4 192.26,-739.4 186.26,-739.4 180.26,-733.4 180.26,-727.4 180.26,-727.4 180.26,-690.2 180.26,-690.2 180.26,-684.2 186.26,-678.2 192.26,-678.2 192.26,-678.2 312.65,-678.2 312.65,-678.2 318.65,-678.2 324.65,-684.2 324.65,-690.2 324.65,-690.2 324.65,-727.4 324.65,-727.4 324.65,-733.4 318.65,-739.4 312.65,-739.4"/>
<text text-anchor="middle" x="252.46" y="-713" font-family="Arial" font-size="14.00">Engage marines in</text>
<text text-anchor="middle" x="252.46" y="-696.2" font-family="Arial" font-size="14.00">physical combat</text>
</g>
<!-- jam_radios&#45;&gt;roof_combat -->
<g id="edge24" class="edge">
<title>jam_radios&#45;&gt;roof_combat</title>
<path fill="none" stroke="#2b303a" d="M248.98,-777.17C249.43,-768.51 249.93,-758.89 250.4,-749.7"/>
<polygon fill="#2b303a" stroke="#2b303a" points="253.9,-749.75 250.92,-739.58 246.91,-749.39 253.9,-749.75"/>
</g>
<!-- call_backup -->
<g id="node26" class="node">
<title>call_backup</title>
<path fill="#b9d6f2" stroke="transparent" d="M439.84,-838.4C439.84,-838.4 341.07,-838.4 341.07,-838.4 335.07,-838.4 329.07,-832.4 329.07,-826.4 329.07,-826.4 329.07,-789.2 329.07,-789.2 329.07,-783.2 335.07,-777.2 341.07,-777.2 341.07,-777.2 439.84,-777.2 439.84,-777.2 445.84,-777.2 451.84,-783.2 451.84,-789.2 451.84,-789.2 451.84,-826.4 451.84,-826.4 451.84,-832.4 445.84,-838.4 439.84,-838.4"/>
<text text-anchor="middle" x="390.46" y="-812" font-family="Arial" font-size="14.00">Marines call for</text>
<text text-anchor="middle" x="390.46" y="-795.2" font-family="Arial" font-size="14.00">backup</text>
</g>
<!-- jam_radios&#45;&gt;call_backup -->
<!-- roof_combat&#45;&gt;sneak_onboard -->
<g id="edge20" class="edge">
<title>roof_combat&#45;&gt;sneak_onboard</title>
<path fill="none" stroke="#2b303a" d="M233.5,-677.8C229.35,-671.24 224.9,-664.2 220.58,-657.37"/>
<polygon fill="#2b303a" stroke="#2b303a" points="223.51,-655.45 215.21,-648.86 217.59,-659.19 223.51,-655.45"/>
</g>
<!-- turkey_behavior -->
<g id="node16" class="node">
<title>turkey_behavior</title>
<path fill="#ffa6d5" stroke="transparent" d="M377.81,-327C377.81,-327 259.1,-327 259.1,-327 253.1,-327 247.1,-321 247.1,-315 247.1,-315 247.1,-260.2 247.1,-260.2 247.1,-254.2 253.1,-248.2 259.1,-248.2 259.1,-248.2 377.81,-248.2 377.81,-248.2 383.81,-248.2 389.81,-254.2 389.81,-260.2 389.81,-260.2 389.81,-315 389.81,-315 389.81,-321 383.81,-327 377.81,-327"/>
<text text-anchor="middle" x="318.46" y="-300.2" font-family="Arial" font-size="14.00">Act like a turkey to</text>
<text text-anchor="middle" x="318.46" y="-283.4" font-family="Arial" font-size="14.00">avoid detection by</text>
<text text-anchor="middle" x="318.46" y="-266.6" font-family="Arial" font-size="14.00">President</text>
</g>
<!-- turkey_behavior&#45;&gt;chosen_turkey -->
<g id="edge7" class="edge">
<title>turkey_behavior&#45;&gt;chosen_turkey</title>
<path fill="none" stroke="#2b303a" d="M280.19,-248.27C273.38,-241.45 266.12,-234.18 258.84,-226.89"/>
<polygon fill="#2b303a" stroke="#2b303a" points="261.11,-224.2 251.57,-219.6 256.15,-229.15 261.11,-224.2"/>
</g>
<!-- turkey_behavior&#45;&gt;attack_rick -->
<g id="edge42" class="edge">
<title>turkey_behavior&#45;&gt;attack_rick</title>
<path fill="none" stroke="#2b303a" d="M327.87,-248.27C331.32,-234.19 335.24,-218.23 338.73,-204.03"/>
<polygon fill="#2b303a" stroke="#2b303a" points="342.19,-204.61 341.17,-194.06 335.39,-202.94 342.19,-204.61"/>
</g>
<!-- euthanize_wrangler&#45;&gt;ghost_corp -->
<g id="edge9" class="edge">
<title>euthanize_wrangler&#45;&gt;ghost_corp</title>
<path fill="none" stroke="#7692ff" stroke-dasharray="1,5" d="M250.14,-2000.56C259.18,-1993.45 269.11,-1985.64 279.04,-1977.82"/>
<polygon fill="#7692ff" stroke="#7692ff" points="281.31,-1980.5 287,-1971.56 276.98,-1975 281.31,-1980.5"/>
</g>
<!-- euthanize_wrangler&#45;&gt;receive_pardon -->
<!-- armored_transport&#45;&gt;ghost_corp -->
<g id="edge8" class="edge">
<title>armored_transport&#45;&gt;ghost_corp</title>
<path fill="none" stroke="#2b303a" d="M346.46,-2099.06C346.46,-2066.33 346.46,-2018.89 346.46,-1981.77"/>
<polygon fill="#2b303a" stroke="#2b303a" points="349.96,-1981.59 346.46,-1971.59 342.96,-1981.59 349.96,-1981.59"/>
</g>
<!-- armored_transport&#45;&gt;monitor_home -->
<!-- audit_vehicles&#45;&gt;pass_audit -->
<g id="edge10" class="edge">
<title>audit_vehicles&#45;&gt;pass_audit</title>
<path fill="none" stroke="#2b303a" d="M390.15,-1785.4C390.49,-1779.42 390.85,-1773.05 391.2,-1766.79"/>
<polygon fill="#2b303a" stroke="#2b303a" points="394.71,-1766.65 391.78,-1756.46 387.72,-1766.25 394.71,-1766.65"/>
</g>
<!-- decoy_vehicles&#45;&gt;track_transport -->
<g id="edge15" class="edge">
<title>decoy_vehicles&#45;&gt;track_transport</title>
<path fill="none" stroke="#2b303a" d="M369.64,-1463.38C369.48,-1454.3 369.31,-1444.85 369.16,-1436"/>
<polygon fill="#2b303a" stroke="#2b303a" points="372.65,-1435.9 368.98,-1425.96 365.66,-1436.02 372.65,-1435.9"/>
</g>
<!-- armed_marines&#45;&gt;stealth_mode -->
<g id="edge17" class="edge">
<title>armed_marines&#45;&gt;stealth_mode</title>
<path fill="none" stroke="#2b303a" d="M366.5,-1248.38C364.2,-1203.47 360.41,-1129.1 357.92,-1080.32"/>
<polygon fill="#2b303a" stroke="#2b303a" points="361.42,-1080.13 357.41,-1070.32 354.42,-1080.48 361.42,-1080.13"/>
</g>
<!-- armed_marines&#45;&gt;face_blind -->
<g id="edge21" class="edge">
<title>armed_marines&#45;&gt;face_blind</title>
<path fill="none" stroke="#2b303a" d="M391.04,-1248.47C394.81,-1242.07 398.81,-1235.29 402.83,-1228.45"/>
<polygon fill="#2b303a" stroke="#2b303a" points="405.87,-1230.19 407.93,-1219.8 399.84,-1226.64 405.87,-1230.19"/>
</g>
<!-- id_chips -->
<g id="node23" class="node">
<title>id_chips</title>
<path fill="#b9d6f2" stroke="transparent" d="M600.96,-847.2C600.96,-847.2 477.95,-847.2 477.95,-847.2 471.95,-847.2 465.95,-841.2 465.95,-835.2 465.95,-835.2 465.95,-780.4 465.95,-780.4 465.95,-774.4 471.95,-768.4 477.95,-768.4 477.95,-768.4 600.96,-768.4 600.96,-768.4 606.96,-768.4 612.96,-774.4 612.96,-780.4 612.96,-780.4 612.96,-835.2 612.96,-835.2 612.96,-841.2 606.96,-847.2 600.96,-847.2"/>
<text text-anchor="middle" x="539.46" y="-820.4" font-family="Arial" font-size="14.00">Track turkey</text>
<text text-anchor="middle" x="539.46" y="-803.6" font-family="Arial" font-size="14.00">marines with</text>
<text text-anchor="middle" x="539.46" y="-786.8" font-family="Arial" font-size="14.00">swallowed ID chips</text>
</g>
<!-- turkey_marines&#45;&gt;id_chips -->
<g id="edge32" class="edge">
<title>turkey_marines&#45;&gt;id_chips</title>
<path fill="none" stroke="#2b303a" d="M520.52,-983.36C524.53,-946.4 530.11,-894.92 534.18,-857.45"/>
<polygon fill="#2b303a" stroke="#2b303a" points="537.68,-857.59 535.28,-847.28 530.72,-856.84 537.68,-857.59"/>
</g>
<!-- id_chips&#45;&gt;scan_transport -->
<g id="edge38" class="edge">
<title>id_chips&#45;&gt;scan_transport</title>
<path fill="none" stroke="#2b303a" d="M516.76,-768.54C484.91,-714.86 427.02,-617.26 392.51,-559.1"/>
<polygon fill="#2b303a" stroke="#2b303a" points="395.5,-557.28 387.39,-550.46 389.48,-560.85 395.5,-557.28"/>
</g>
<!-- monitor_home&#45;&gt;flesh_robots -->
<g id="edge22" class="edge">
<title>monitor_home&#45;&gt;flesh_robots</title>
<path fill="none" stroke="#2b303a" d="M509.46,-2099.16C509.46,-2056.54 509.46,-1985.76 509.46,-1924.8 509.46,-1924.8 509.46,-1924.8 509.46,-1724.8 509.46,-1672.07 509.46,-1611.99 509.46,-1569.14"/>
<polygon fill="#2b303a" stroke="#2b303a" points="512.96,-1568.91 509.46,-1558.91 505.96,-1568.91 512.96,-1568.91"/>
</g>
<!-- investigate_noise&#45;&gt;jam_radios -->
<g id="edge23" class="edge">
<title>investigate_noise&#45;&gt;jam_radios</title>
<path fill="none" stroke="#2b303a" d="M316.16,-875.85C306.16,-866.09 295.44,-855.63 285.51,-845.93"/>
<polygon fill="#2b303a" stroke="#2b303a" points="287.69,-843.17 278.09,-838.7 282.8,-848.18 287.69,-843.17"/>
</g>
<!-- investigate_noise&#45;&gt;call_backup -->
<g id="edge35" class="edge">
<title>investigate_noise&#45;&gt;call_backup</title>
<path fill="none" stroke="#2b303a" d="M368.19,-875.85C371.18,-866.86 374.36,-857.27 377.36,-848.23"/>
<polygon fill="#2b303a" stroke="#2b303a" points="380.7,-849.29 380.53,-838.7 374.06,-847.08 380.7,-849.29"/>
</g>
<!-- call_backup&#45;&gt;receive_pardon -->
<!-- blaine_box&#45;&gt;scan_transport -->
<g id="edge37" class="edge">
<title>blaine_box&#45;&gt;scan_transport</title>
<path fill="none" stroke="#2b303a" d="M560.98,-1355.95C591.73,-1312.22 635.46,-1237.24 635.46,-1164.6 635.46,-1164.6 635.46,-1164.6 635.46,-707.8 635.46,-609.74 517.51,-555.76 437.24,-530.38"/>
<polygon fill="#2b303a" stroke="#2b303a" points="438.24,-527.02 427.65,-527.42 436.18,-533.71 438.24,-527.02"/>
</g>
<!-- scan_transport&#45;&gt;president_turkey -->
<g id="edge41" class="edge">
<title>scan_transport&#45;&gt;president_turkey</title>
<path fill="none" stroke="#2b303a" d="M349.01,-471.59C345.41,-462.68 341.53,-453.07 337.78,-443.8"/>
<polygon fill="#2b303a" stroke="#2b303a" points="340.93,-442.26 333.94,-434.3 334.44,-444.89 340.93,-442.26"/>
</g>
<!-- president_turkey&#45;&gt;turkey_behavior -->
<g id="edge25" class="edge">
<title>president_turkey&#45;&gt;turkey_behavior</title>
<path fill="none" stroke="#2b303a" d="M318.46,-355.65C318.46,-349.69 318.46,-343.47 318.46,-337.32"/>
<polygon fill="#2b303a" stroke="#2b303a" points="321.96,-337.1 318.46,-327.1 314.96,-337.1 321.96,-337.1"/>
</g>
<!-- attack_rick&#45;&gt;receive_pardon -->
</g>
</svg>
